National Park -Regular.ufo
<glyph name="quotesingle" format="2">
	<advance width="160"/>
	<unicode hex="0027"/>
	<outline>
		<contour>
			<point x="118" y="523" type="curve" smooth="yes"/>
			<point x="122" y="668" type="line" smooth="yes"/>
			<point x="123" y="693"/>
			<point x="104" y="711"/>
			<point x="80" y="711" type="curve" smooth="yes"/>
			<point x="56" y="711"/>
			<point x="37" y="693"/>
			<point x="38" y="668" type="curve" smooth="yes"/>
			<point x="42" y="523" type="line" smooth="yes"/>
			<point x="43" y="500"/>
			<point x="58" y="484"/>
			<point x="80" y="484" type="curve" smooth="yes"/>
			<point x="102" y="484"/>
			<point x="117" y="500"/>
		</contour>
	</outline>
</glyph>
<glyph name="comma" format="2">
	<advance width="203"/>
	<unicode hex="002C"/>
	<outline>
		<contour>
			<point x="49" y="-153" type="curve" smooth="yes"/>
			<point x="65" y="-153"/>
			<point x="80" y="-142"/>
			<point x="89" y="-124" type="curve" smooth="yes"/>
			<point x="162" y="32" type="line" smooth="yes"/>
			<point x="177" y="63"/>
			<point x="165" y="100"/>
			<point x="125" y="100" type="curve" smooth="yes"/>
			<point x="104" y="100"/>
			<point x="87" y="90"/>
			<point x="77" y="64" type="curve" smooth="yes"/>
			<point x="14" y="-95" type="line" smooth="yes"/>
			<point x="3" y="-122"/>
			<point x="16" y="-153"/>
		</contour>
	</outline>
</glyph>
<glyph name="period" format="2">
	<advance width="210"/>
	<unicode hex="002E"/>
	<outline>
		<contour>
			<point x="105" y="-10" type="curve" smooth="yes"/>
			<point x="72" y="-10"/>
			<point x="50" y="12"/>
			<point x="50" y="53" type="curve" smooth="yes"/>
			<point x="50" y="93"/>
			<point x="72" y="115"/>
			<point x="105" y="115" type="curve" smooth="yes"/>
			<point x="138" y="115"/>
			<point x="160" y="93"/>
			<point x="160" y="53" type="curve" smooth="yes"/>
			<point x="160" y="12"/>
			<point x="138" y="-10"/>
		</contour>
	</outline>
</glyph>
<glyph name="eight" format="2">
	<advance width="620"/>
	<unicode hex="0038"/>
	<outline>
		<contour>
			<point x="217" y="344" type="curve"/>
			<point x="196" y="417" type="line"/>
			<point x="129" y="383"/>
			<point x="46" y="318"/>
			<point x="46" y="216" type="curve" smooth="yes"/>
			<point x="46" y="66"/>
			<point x="164" y="-15"/>
			<point x="306" y="-15" type="curve" smooth="yes"/>
			<point x="420" y="-15"/>
			<point x="541" y="68"/>
			<point x="541" y="198" type="curve" smooth="yes"/>
			<point x="541" y="352"/>
			<point x="402" y="396"/>
			<point x="299" y="410" type="curve" smooth="yes"/>
			<point x="210" y="422"/>
			<point x="148" y="432"/>
			<point x="148" y="524" type="curve" smooth="yes"/>
			<point x="148" y="599"/>
			<point x="213" y="635"/>
			<point x="294" y="635" type="curve" smooth="yes"/>
			<point x="369" y="635"/>
			<point x="447" y="604"/>
			<point x="447" y="530" type="curve" smooth="yes"/>
			<point x="447" y="472"/>
			<point x="411" y="425"/>
			<point x="360" y="394" type="curve"/>
			<point x="393" y="329" type="line"/>
			<point x="456" y="368"/>
			<point x="527" y="436"/>
			<point x="527" y="530" type="curve" smooth="yes"/>
			<point x="527" y="667"/>
			<point x="398" y="715"/>
			<point x="294" y="715" type="curve" smooth="yes"/>
			<point x="189" y="715"/>
			<point x="68" y="652"/>
			<point x="68" y="524" type="curve" smooth="yes"/>
			<point x="68" y="363"/>
			<point x="199" y="343"/>
			<point x="289" y="331" type="curve" smooth="yes"/>
			<point x="376" y="319"/>
			<point x="461" y="288"/>
			<point x="461" y="198" type="curve" smooth="yes"/>
			<point x="461" y="114"/>
			<point x="388" y="65"/>
			<point x="306" y="65" type="curve" smooth="yes"/>
			<point x="203" y="65"/>
			<point x="126" y="119"/>
			<point x="126" y="216" type="curve" smooth="yes"/>
			<point x="126" y="280"/>
			<point x="172" y="317"/>
		</contour>
	</outline>
</glyph>
<glyph name="E" format="2">
	<advance width="544"/>
	<unicode hex="0045"/>
	<guideline x="439" y="0" angle="0"/>
	<anchor x="282" y="0" name="bottom"/>
	<anchor x="424" y="0" name="ogonek"/>
	<anchor x="282" y="700" name="top"/>
	<anchor x="20" y="700" name="topleft"/>
	<outline>
		<contour>
			<point x="121" y="0" type="curve" smooth="yes"/>
			<point x="162" y="0" type="line"/>
			<point x="162" y="700" type="line"/>
			<point x="121" y="700" type="line" smooth="yes"/>
			<point x="98" y="700"/>
			<point x="80" y="682"/>
			<point x="80" y="659" type="curve" smooth="yes"/>
			<point x="80" y="41" type="line" smooth="yes"/>
			<point x="80" y="18"/>
			<point x="98" y="0"/>
		</contour>
		<contour>
			<point x="122" y="624" type="line"/>
			<point x="439" y="624" type="line" smooth="yes"/>
			<point x="460" y="624"/>
			<point x="477" y="641"/>
			<point x="477" y="662" type="curve" smooth="yes"/>
			<point x="477" y="683"/>
			<point x="460" y="700"/>
			<point x="439" y="700" type="curve" smooth="yes"/>
			<point x="122" y="700" type="line"/>
		</contour>
		<contour>
			<point x="122" y="326" type="line"/>
			<point x="418" y="326" type="line" smooth="yes"/>
			<point x="439" y="326"/>
			<point x="456" y="343"/>
			<point x="456" y="364" type="curve" smooth="yes"/>
			<point x="456" y="385"/>
			<point x="439" y="402"/>
			<point x="418" y="402" type="curve" smooth="yes"/>
			<point x="122" y="402" type="line"/>
		</contour>
		<contour>
			<point x="129" y="0" type="line"/>
			<point x="466" y="0" type="line" smooth="yes"/>
			<point x="487" y="0"/>
			<point x="504" y="17"/>
			<point x="504" y="38" type="curve" smooth="yes"/>
			<point x="504" y="59"/>
			<point x="487" y="76"/>
			<point x="466" y="76" type="curve" smooth="yes"/>
			<point x="129" y="76" type="line"/>
		</contour>
	</outline>
</glyph>
<glyph name="F" format="2">
	<advance width="517"/>
	<unicode hex="0046"/>
	<outline>
		<contour>
			<point x="139" y="624" type="line"/>
			<point x="439" y="624" type="line" smooth="yes"/>
			<point x="460" y="624"/>
			<point x="477" y="641"/>
			<point x="477" y="662" type="curve" smooth="yes"/>
			<point x="477" y="683"/>
			<point x="460" y="700"/>
			<point x="439" y="700" type="curve" smooth="yes"/>
			<point x="139" y="700" type="line"/>
		</contour>
		<contour>
			<point x="122" y="321" type="line"/>
			<point x="418" y="321" type="line" smooth="yes"/>
			<point x="439" y="321"/>
			<point x="456" y="338"/>
			<point x="456" y="359" type="curve" smooth="yes"/>
			<point x="456" y="380"/>
			<point x="439" y="397"/>
			<point x="418" y="397" type="curve" smooth="yes"/>
			<point x="122" y="397" type="line"/>
		</contour>
		<contour>
			<point x="121" y="-5" type="curve" smooth="yes"/>
			<point x="144" y="-5"/>
			<point x="162" y="13"/>
			<point x="162" y="36" type="curve" smooth="yes"/>
			<point x="162" y="700" type="line"/>
			<point x="121" y="700" type="line" smooth="yes" name="💚"/>
			<point x="98" y="700"/>
			<point x="80" y="682"/>
			<point x="80" y="659" type="curve" smooth="yes"/>
			<point x="80" y="36" type="line" smooth="yes"/>
			<point x="80" y="13"/>
			<point x="98" y="-5"/>
		</contour>
	</outline>
</glyph>
<glyph name="P" format="2">
	<advance width="589"/>
	<unicode hex="0050"/>
	<anchor x="289" y="0" name="bottom"/>
	<anchor x="289" y="700" name="top"/>
	<outline>
		<contour>
			<point x="121" y="-10" type="curve" smooth="yes"/>
			<point x="144" y="-10"/>
			<point x="162" y="8"/>
			<point x="162" y="31" type="curve" smooth="yes"/>
			<point x="162" y="700" type="line"/>
			<point x="121" y="700" type="line" smooth="yes" name="💚"/>
			<point x="98" y="700"/>
			<point x="80" y="682"/>
			<point x="80" y="659" type="curve" smooth="yes"/>
			<point x="80" y="31" type="line" smooth="yes"/>
			<point x="80" y="8"/>
			<point x="98" y="-10"/>
		</contour>
		<contour>
			<point x="117" y="288" type="line"/>
			<point x="370" y="288" type="line" smooth="yes"/>
			<point x="475" y="288"/>
			<point x="559" y="375"/>
			<point x="559" y="494" type="curve" smooth="yes"/>
			<point x="559" y="613"/>
			<point x="472" y="700"/>
			<point x="353" y="700" type="curve" smooth="yes"/>
			<point x="117" y="700" type="line"/>
			<point x="117" y="622" type="line"/>
			<point x="353" y="622" type="line" smooth="yes"/>
			<point x="429" y="622"/>
			<point x="478" y="570"/>
			<point x="478" y="494" type="curve" smooth="yes"/>
			<point x="478" y="418"/>
			<point x="429" y="366"/>
			<point x="353" y="366" type="curve" smooth="yes"/>
			<point x="117" y="366" type="line"/>
		</contour>
	</outline>
</glyph>
<glyph name="T" format="2">
	<advance width="555"/>
	<unicode hex="0054"/>
	<anchor x="279" y="0" name="bottom"/>
	<anchor x="278" y="350" name="center"/>
	<anchor x="278" y="700" name="top"/>
	<outline>
		<contour>
			<point x="280" y="-10" type="curve" smooth="yes"/>
			<point x="303" y="-10"/>
			<point x="321" y="8"/>
			<point x="321" y="31" type="curve" smooth="yes"/>
			<point x="321" y="624" type="line"/>
			<point x="492" y="624" type="line" smooth="yes"/>
			<point x="513" y="624"/>
			<point x="530" y="641"/>
			<point x="530" y="662" type="curve" smooth="yes"/>
			<point x="530" y="683"/>
			<point x="513" y="700"/>
			<point x="492" y="700" type="curve" smooth="yes"/>
			<point x="63" y="700" type="line" smooth="yes"/>
			<point x="42" y="700"/>
			<point x="25" y="683"/>
			<point x="25" y="662" type="curve" smooth="yes"/>
			<point x="25" y="641"/>
			<point x="42" y="624"/>
			<point x="63" y="624" type="curve" smooth="yes"/>
			<point x="239" y="624" type="line"/>
			<point x="239" y="31" type="line" smooth="yes"/>
			<point x="239" y="8"/>
			<point x="257" y="-10"/>
		</contour>
	</outline>
</glyph>
<glyph name="X" format="2">
	<advance width="620"/>
	<unicode hex="0058"/>
	<anchor x="314" y="0" name="bottom"/>
	<anchor x="314" y="700" name="top"/>
	<outline>
		<contour>
			<point x="541" y="-5" type="curve" smooth="yes"/>
			<point x="563" y="-5"/>
			<point x="580" y="12"/>
			<point x="580" y="34" type="curve" smooth="yes"/>
			<point x="580" y="42"/>
			<point x="577" y="50"/>
			<point x="573" y="56" type="curve" smooth="yes"/>
			<point x="125" y="688" type="line" smooth="yes"/>
			<point x="118" y="698"/>
			<point x="106" y="705"/>
			<point x="93" y="705" type="curve" smooth="yes"/>
			<point x="71" y="705"/>
			<point x="54" y="688"/>
			<point x="54" y="666" type="curve" smooth="yes"/>
			<point x="54" y="658"/>
			<point x="57" y="650"/>
			<point x="61" y="644" type="curve" smooth="yes"/>
			<point x="509" y="12" type="line" smooth="yes"/>
			<point x="516" y="2"/>
			<point x="528" y="-5"/>
		</contour>
		<contour>
			<point x="339" y="322" type="line"/>
			<point x="565" y="645" type="line" smooth="yes"/>
			<point x="569" y="651"/>
			<point x="572" y="659"/>
			<point x="572" y="667" type="curve" smooth="yes"/>
			<point x="572" y="689"/>
			<point x="555" y="706"/>
			<point x="533" y="706" type="curve" smooth="yes"/>
			<point x="520" y="706"/>
			<point x="508" y="699"/>
			<point x="501" y="689" type="curve" smooth="yes"/>
			<point x="291" y="389" type="line"/>
		</contour>
		<contour>
			<point x="79" y="-5" type="curve" smooth="yes"/>
			<point x="92" y="-5"/>
			<point x="104" y="2"/>
			<point x="111" y="12" type="curve" smooth="yes"/>
			<point x="329" y="322" type="line"/>
			<point x="281" y="389" type="line"/>
			<point x="47" y="56" type="line" smooth="yes"/>
			<point x="43" y="50"/>
			<point x="40" y="42"/>
			<point x="40" y="34" type="curve" smooth="yes"/>
			<point x="40" y="12"/>
			<point x="57" y="-5"/>
		</contour>
	</outline>
</glyph>
<glyph name="Z" format="2">
	<advance width="571"/>
	<unicode hex="005A"/>
	<anchor x="283" y="0" name="bottom"/>
	<anchor x="283" y="350" name="center"/>
	<anchor x="283" y="700" name="top"/>
	<outline>
		<contour>
			<point x="97" y="0" type="curve" smooth="yes"/>
			<point x="493" y="0" type="line" smooth="yes"/>
			<point x="515" y="0"/>
			<point x="532" y="17"/>
			<point x="532" y="39" type="curve" smooth="yes"/>
			<point x="532" y="61"/>
			<point x="515" y="78"/>
			<point x="493" y="78" type="curve" smooth="yes"/>
			<point x="96" y="78" type="line"/>
			<point x="116" y="40" type="line"/>
			<point x="496" y="614" type="line" smooth="yes"/>
			<point x="508" y="633"/>
			<point x="515" y="649"/>
			<point x="515" y="662" type="curve" smooth="yes"/>
			<point x="515" y="686"/>
			<point x="500" y="700"/>
			<point x="453" y="700" type="curve" smooth="yes"/>
			<point x="85" y="700" type="line" smooth="yes"/>
			<point x="63" y="700"/>
			<point x="46" y="683"/>
			<point x="46" y="661" type="curve" smooth="yes"/>
			<point x="46" y="639"/>
			<point x="63" y="622"/>
			<point x="85" y="622" type="curve" smooth="yes"/>
			<point x="455" y="622" type="line"/>
			<point x="432" y="659" type="line"/>
			<point x="54" y="86" type="line" smooth="yes" name="💚"/>
			<point x="42" y="67"/>
			<point x="35" y="51"/>
			<point x="35" y="38" type="curve" smooth="yes"/>
			<point x="35" y="14"/>
			<point x="50" y="0"/>
		</contour>
	</outline>
</glyph>
<glyph name="bracketleft" format="2">
	<advance width="291"/>
	<unicode hex="005B"/>
	<outline>
		<contour>
			<point x="40" y="758" type="curve" smooth="yes" name="💚"/>
			<point x="40" y="720" type="line"/>
			<point x="213" y="720" type="line" smooth="yes"/>
			<point x="234" y="720"/>
			<point x="251" y="737"/>
			<point x="251" y="758" type="curve" smooth="yes"/>
			<point x="251" y="779"/>
			<point x="234" y="796"/>
			<point x="213" y="796" type="curve" smooth="yes"/>
			<point x="78" y="796" type="line" smooth="yes"/>
			<point x="57" y="796"/>
			<point x="40" y="779"/>
		</contour>
		<contour>
			<point x="122" y="-145" type="line"/>
			<point x="122" y="745" type="line"/>
			<point x="40" y="745" type="line"/>
			<point x="40" y="728" type="line"/>
			<point x="40" y="-145" type="line"/>
		</contour>
		<contour>
			<point x="213" y="-107" type="curve" smooth="yes"/>
			<point x="40" y="-107" type="line"/>
			<point x="40" y="-145" type="line" smooth="yes" name="💚"/>
			<point x="40" y="-166"/>
			<point x="57" y="-183"/>
			<point x="78" y="-183" type="curve" smooth="yes"/>
			<point x="213" y="-183" type="line" smooth="yes"/>
			<point x="234" y="-183"/>
			<point x="251" y="-166"/>
			<point x="251" y="-145" type="curve" smooth="yes"/>
			<point x="251" y="-124"/>
			<point x="234" y="-107"/>
		</contour>
	</outline>
</glyph>
<glyph name="asciicircum" format="2">
	<advance width="420"/>
	<unicode hex="005E"/>
	<outline>
		<contour>
			<point x="368" y="445" type="curve" smooth="yes"/>
			<point x="259" y="655" type="line" smooth="yes"/>
			<point x="237" y="697"/>
			<point x="183" y="697"/>
			<point x="161" y="655" type="curve" smooth="yes"/>
			<point x="52" y="445" type="line" smooth="yes"/>
			<point x="50" y="440"/>
			<point x="48" y="433"/>
			<point x="48" y="427" type="curve" smooth="yes"/>
			<point x="48" y="405"/>
			<point x="65" y="388"/>
			<point x="87" y="388" type="curve" smooth="yes"/>
			<point x="102" y="388"/>
			<point x="115" y="397"/>
			<point x="122" y="409" type="curve" smooth="yes"/>
			<point x="231" y="619" type="line"/>
			<point x="189" y="619" type="line"/>
			<point x="298" y="409" type="line" smooth="yes"/>
			<point x="305" y="397"/>
			<point x="318" y="388"/>
			<point x="333" y="388" type="curve" smooth="yes"/>
			<point x="355" y="388"/>
			<point x="372" y="405"/>
			<point x="372" y="427" type="curve" smooth="yes"/>
			<point x="372" y="433"/>
			<point x="370" y="440"/>
		</contour>
	</outline>
</glyph>
<glyph name="c" format="2">
	<advance width="504"/>
	<unicode hex="0063"/>
	<anchor x="265" y="0" name="bottom"/>
	<anchor x="266" y="515" name="top"/>
	<outline>
		<contour>
			<point x="270" y="-15" type="curve" smooth="yes"/>
			<point x="372" y="-15"/>
			<point x="448" y="55"/>
			<point x="467" y="146" type="curve" smooth="yes"/>
			<point x="474" y="180"/>
			<point x="456" y="201"/>
			<point x="430" y="201" type="curve" smooth="yes"/>
			<point x="408" y="201"/>
			<point x="394" y="185"/>
			<point x="391" y="165" type="curve" smooth="yes"/>
			<point x="382" y="107"/>
			<point x="334" y="62"/>
			<point x="270" y="62" type="curve" smooth="yes"/>
			<point x="177" y="62"/>
			<point x="120" y="141"/>
			<point x="120" y="259" type="curve" smooth="yes"/>
			<point x="120" y="369"/>
			<point x="170" y="453"/>
			<point x="273" y="453" type="curve" smooth="yes"/>
			<point x="321" y="453"/>
			<point x="355" y="435"/>
			<point x="376" y="397" type="curve" smooth="yes"/>
			<point x="388" y="375"/>
			<point x="397" y="355"/>
			<point x="421" y="355" type="curve" smooth="yes"/>
			<point x="445" y="355"/>
			<point x="462" y="375"/>
			<point x="457" y="402" type="curve" smooth="yes"/>
			<point x="445" y="470"/>
			<point x="370" y="530"/>
			<point x="271" y="530" type="curve" smooth="yes"/>
			<point x="133" y="530"/>
			<point x="40" y="412"/>
			<point x="40" y="259" type="curve" smooth="yes"/>
			<point x="40" y="103"/>
			<point x="126" y="-15"/>
		</contour>
	</outline>
</glyph>
<glyph name="n" format="2">
	<advance width="550"/>
	<unicode hex="006E"/>
	<anchor x="275" y="0" name="bottom"/>
	<anchor x="275" y="515" name="top"/>
	<outline>
		<contour>
			<point x="150" y="30" type="curve" smooth="yes"/>
			<point x="150" y="485" type="line" smooth="yes"/>
			<point x="150" y="507"/>
			<point x="132" y="525"/>
			<point x="110" y="525" type="curve" smooth="yes"/>
			<point x="88" y="525"/>
			<point x="70" y="507"/>
			<point x="70" y="485" type="curve" smooth="yes"/>
			<point x="70" y="30" type="line" smooth="yes"/>
			<point x="70" y="8"/>
			<point x="88" y="-10"/>
			<point x="110" y="-10" type="curve" smooth="yes"/>
			<point x="132" y="-10"/>
			<point x="150" y="8"/>
		</contour>
		<contour>
			<point x="139" y="449" type="curve"/>
			<point x="139" y="353" type="line"/>
			<point x="150" y="353" type="line"/>
			<point x="150" y="405"/>
			<point x="215" y="454"/>
			<point x="292" y="454" type="curve" smooth="yes"/>
			<point x="362" y="454"/>
			<point x="409" y="413"/>
			<point x="409" y="340" type="curve" smooth="yes"/>
			<point x="409" y="30" type="line" smooth="yes"/>
			<point x="409" y="8"/>
			<point x="427" y="-10"/>
			<point x="449" y="-10" type="curve" smooth="yes"/>
			<point x="471" y="-10"/>
			<point x="489" y="8"/>
			<point x="489" y="30" type="curve" smooth="yes"/>
			<point x="490" y="342" type="line" smooth="yes"/>
			<point x="490" y="455"/>
			<point x="413" y="530"/>
			<point x="302" y="530" type="curve" smooth="yes"/>
			<point x="232" y="530"/>
			<point x="174" y="500"/>
		</contour>
	</outline>
</glyph>
<glyph name="s" format="2">
	<advance width="482"/>
	<unicode hex="0073"/>
	<anchor x="240" y="0" name="bottom"/>
	<anchor x="240" y="515" name="top"/>
	<outline>
		<contour>
			<point x="247" y="-16" type="curve" smooth="yes"/>
			<point x="395" y="-16"/>
			<point x="434" y="84"/>
			<point x="434" y="148" type="curve" smooth="yes"/>
			<point x="434" y="251"/>
			<point x="337" y="279"/>
			<point x="254" y="300" type="curve" smooth="yes"/>
			<point x="187" y="317"/>
			<point x="134" y="331"/>
			<point x="134" y="386" type="curve" smooth="yes"/>
			<point x="134" y="427"/>
			<point x="178" y="456"/>
			<point x="241" y="456" type="curve" smooth="yes"/>
			<point x="325" y="456"/>
			<point x="340" y="415"/>
			<point x="348" y="391" type="curve" smooth="yes"/>
			<point x="353" y="375"/>
			<point x="368" y="363"/>
			<point x="386" y="363" type="curve" smooth="yes"/>
			<point x="409" y="363"/>
			<point x="426" y="381"/>
			<point x="426" y="402" type="curve" smooth="yes"/>
			<point x="426" y="452"/>
			<point x="371" y="530"/>
			<point x="241" y="530" type="curve" smooth="yes"/>
			<point x="117" y="530"/>
			<point x="57" y="452"/>
			<point x="57" y="374" type="curve" smooth="yes"/>
			<point x="57" y="275"/>
			<point x="151" y="248"/>
			<point x="231" y="227" type="curve" smooth="yes"/>
			<point x="297" y="210"/>
			<point x="357" y="195"/>
			<point x="357" y="137" type="curve" smooth="yes"/>
			<point x="357" y="88"/>
			<point x="315" y="58"/>
			<point x="249" y="58" type="curve" smooth="yes"/>
			<point x="178" y="58"/>
			<point x="124" y="84"/>
			<point x="119" y="140" type="curve" smooth="yes"/>
			<point x="117" y="161"/>
			<point x="101" y="177"/>
			<point x="80" y="177" type="curve" smooth="yes"/>
			<point x="56" y="177"/>
			<point x="38" y="156"/>
			<point x="40" y="134" type="curve" smooth="yes"/>
			<point x="48" y="46"/>
			<point x="129" y="-16"/>
		</contour>
	</outline>
</glyph>
<glyph name="z" format="2">
	<advance width="486"/>
	<unicode hex="007A"/>
	<anchor x="243" y="0" name="bottom"/>
	<anchor x="243" y="258" name="center"/>
	<anchor x="243" y="515" name="top"/>
	<outline>
		<contour>
			<point x="396" y="79" type="curve" smooth="yes"/>
			<point x="93" y="79" type="line"/>
			<point x="122" y="24" type="line"/>
			<point x="420" y="445" type="line" smooth="yes"/>
			<point x="441" y="475"/>
			<point x="420" y="515"/>
			<point x="384" y="515" type="curve" smooth="yes"/>
			<point x="102" y="515" type="line" smooth="yes"/>
			<point x="80" y="515"/>
			<point x="62" y="497"/>
			<point x="62" y="475" type="curve" smooth="yes"/>
			<point x="62" y="453"/>
			<point x="80" y="437"/>
			<point x="102" y="437" type="curve" smooth="yes"/>
			<point x="384" y="436" type="line"/>
			<point x="356" y="491" type="line"/>
			<point x="58" y="70" type="line" smooth="yes"/>
			<point x="38" y="41"/>
			<point x="57" y="1"/>
			<point x="93" y="1" type="curve" smooth="yes" name="❌"/>
			<point x="396" y="1" type="line" smooth="yes" name="❌"/>
			<point x="418" y="1"/>
			<point x="436" y="19"/>
			<point x="436" y="41" type="curve" smooth="yes"/>
			<point x="436" y="63"/>
			<point x="418" y="79"/>
		</contour>
	</outline>
</glyph>
<glyph name="eogonek" format="2">
	<advance width="528"/>
	<unicode hex="0119"/>
	<anchor x="386" y="10" name="_ogonek"/>
	<outline>
		<component base="e"/>
		<contour>
			<point x="405" y="28" type="curve" smooth="yes"/>
			<point x="437" y="61" type="line"/>
			<point x="366" y="61" type="line"/>
			<point x="336" y="23" type="line" smooth="yes"/>
			<point x="318" y="0"/>
			<point x="252" y="-29"/>
			<point x="252" y="-100" type="curve" smooth="yes"/>
			<point x="252" y="-158"/>
			<point x="297" y="-181"/>
			<point x="344" y="-183" type="curve" smooth="yes"/>
			<point x="370" y="-184"/>
			<point x="406" y="-179"/>
			<point x="436" y="-144" type="curve" smooth="yes"/>
			<point x="442" y="-137"/>
			<point x="446" y="-129"/>
			<point x="446" y="-119" type="curve" smooth="yes"/>
			<point x="446" y="-99"/>
			<point x="432" y="-85"/>
			<point x="412" y="-85" type="curve" smooth="yes"/>
			<point x="401" y="-85"/>
			<point x="392" y="-89"/>
			<point x="385" y="-96" type="curve" smooth="yes"/>
			<point x="370" y="-111"/>
			<point x="362" y="-119"/>
			<point x="346" y="-119" type="curve" smooth="yes"/>
			<point x="326" y="-119"/>
			<point x="322" y="-107"/>
			<point x="322" y="-99" type="curve" smooth="yes"/>
			<point x="322" y="-58"/>
			<point x="362" y="-16"/>
		</contour>
	</outline>
</glyph>
<glyph name="idotless" format="2">
	<advance width="222"/>
	<unicode hex="0131"/>
	<anchor x="111" y="0" name="bottom"/>
	<anchor x="84" y="0" name="ogonek"/>
	<anchor x="111" y="515" name="top"/>
	<outline>
		<contour>
			<point x="111" y="-10" type="curve" smooth="yes"/>
			<point x="134" y="-10"/>
			<point x="152" y="8"/>
			<point x="152" y="30" type="curve" smooth="yes"/>
			<point x="152" y="485" type="line" smooth="yes"/>
			<point x="152" y="507"/>
			<point x="134" y="525"/>
			<point x="111" y="525" type="curve" smooth="yes"/>
			<point x="87" y="525"/>
			<point x="70" y="507"/>
			<point x="70" y="485" type="curve" smooth="yes"/>
			<point x="70" y="30" type="line" smooth="yes"/>
			<point x="70" y="8"/>
			<point x="87" y="-10"/>
		</contour>
	</outline>
</glyph>
<glyph name="Eng" format="2">
	<advance width="657"/>
	<unicode hex="014A"/>
	<anchor x="907" y="0" name="bottom"/>
	<anchor x="1037" y="700" name="top"/>
	<outline>
		<component base="N"/>
		<contour>
			<point x="577" y="21" type="curve" smooth="yes"/>
			<point x="577" y="35" type="line"/>
			<point x="478" y="35" type="line"/>
			<point x="486" y="22"/>
			<point x="497" y="8"/>
			<point x="497" y="-18" type="curve" smooth="yes"/>
			<point x="497" y="-64"/>
			<point x="462" y="-106"/>
			<point x="406" y="-106" type="curve" smooth="yes"/>
			<point x="346" y="-106"/>
			<point x="315" y="-58"/>
			<point x="315" y="0" type="curve" smooth="yes"/>
			<point x="315" y="23"/>
			<point x="299" y="41"/>
			<point x="276" y="41" type="curve" smooth="yes"/>
			<point x="253" y="41"/>
			<point x="235" y="23"/>
			<point x="235" y="-13" type="curve" smooth="yes"/>
			<point x="235" y="-86"/>
			<point x="289" y="-185"/>
			<point x="412" y="-185" type="curve" smooth="yes"/>
			<point x="533" y="-185"/>
			<point x="577" y="-77"/>
		</contour>
	</outline>
</glyph>
<glyph name="Schwa" format="2">
	<advance width="673"/>
	<unicode hex="018F"/>
	<outline>
		<contour>
			<point x="574" y="344" type="move"/>
			<point x="117" y="344" type="line" smooth="yes"/>
			<point x="105" y="344"/>
			<point x="96" y="336"/>
			<point x="96" y="324" type="curve" smooth="yes"/>
			<point x="96" y="198"/>
			<point x="150" y="25"/>
			<point x="346" y="25" type="curve" smooth="yes"/>
			<point x="498" y="25"/>
			<point x="577" y="164"/>
			<point x="577" y="361" type="curve" smooth="yes"/>
			<point x="577" y="400"/>
			<point x="561" y="675"/>
			<point x="335" y="675" type="curve" smooth="yes"/>
			<point x="226" y="675"/>
			<point x="155" y="603"/>
			<point x="126" y="530" type="curve"/>
		</contour>
	</outline>
</glyph>
<glyph name="Oogonek" format="2">
	<advance width="688"/>
	<unicode hex="01EA"/>
	<outline>
		<component base="O"/>
		<contour>
			<point x="467" y="-98" type="curve" smooth="yes"/>
			<point x="452" y="-113"/>
			<point x="444" y="-121"/>
			<point x="428" y="-121" type="curve" smooth="yes"/>
			<point x="408" y="-121"/>
			<point x="404" y="-109"/>
			<point x="404" y="-101" type="curve" smooth="yes"/>
			<point x="404" y="-60"/>
			<point x="486" y="16"/>
			<point x="535" y="65" type="curve" smooth="yes"/>
			<point x="536" y="66" type="line"/>
			<point x="492" y="96" type="line"/>
			<point x="448" y="53" type="line" smooth="yes"/>
			<point x="443" y="48"/>
			<point x="334" y="-31"/>
			<point x="334" y="-109" type="curve" smooth="yes"/>
			<point x="334" y="-160"/>
			<point x="379" y="-183"/>
			<point x="426" y="-185" type="curve" smooth="yes"/>
			<point x="452" y="-186"/>
			<point x="488" y="-181"/>
			<point x="518" y="-146" type="curve" smooth="yes"/>
			<point x="524" y="-139"/>
			<point x="528" y="-131"/>
			<point x="528" y="-121" type="curve" smooth="yes"/>
			<point x="528" y="-101"/>
			<point x="514" y="-87"/>
			<point x="494" y="-87" type="curve" smooth="yes"/>
			<point x="483" y="-87"/>
			<point x="474" y="-91"/>
		</contour>
	</outline>
</glyph>
<glyph name="tildecomb" format="2">
	<advance width="0"/>
	<unicode hex="0303"/>
	<anchor x="196" y="515" name="_top"/>
	<anchor x="196" y="697" name="top"/>
	<outline>
		<contour>
			<point x="22" y="475" type="move"/>
		</contour>
		<contour>
			<point x="294" y="723" type="curve" smooth="yes"/>
			<point x="288" y="700"/>
			<point x="275" y="692"/>
			<point x="261" y="692" type="curve" smooth="yes"/>
			<point x="222" y="692"/>
			<point x="204" y="756"/>
			<point x="141" y="756" type="curve" smooth="yes"/>
			<point x="79" y="756"/>
			<point x="40" y="694"/>
			<point x="40" y="658" type="curve" smooth="yes"/>
			<point x="40" y="636"/>
			<point x="54" y="619"/>
			<point x="74" y="619" type="curve" smooth="yes"/>
			<point x="91" y="619"/>
			<point x="105" y="630"/>
			<point x="109" y="645" type="curve" smooth="yes"/>
			<point x="117" y="673"/>
			<point x="128" y="682"/>
			<point x="141" y="682" type="curve" smooth="yes"/>
			<point x="176" y="682"/>
			<point x="199" y="618"/>
			<point x="262" y="618" type="curve" smooth="yes"/>
			<point x="320" y="618"/>
			<point x="368" y="674"/>
			<point x="366" y="719" type="curve" smooth="yes"/>
			<point x="365" y="737"/>
			<point x="351" y="755"/>
			<point x="331" y="755" type="curve" smooth="yes"/>
			<point x="313" y="755"/>
			<point x="299" y="742"/>
		</contour>
	</outline>
</glyph>
<glyph name="ringcomb" format="2">
	<advance width="0"/>
	<unicode hex="030A"/>
	<anchor x="146" y="515" name="_top"/>
	<anchor x="147" y="769" name="top"/>
	<outline>
		<contour>
			<point x="146" y="570" type="curve" smooth="yes"/>
			<point x="205" y="570"/>
			<point x="254" y="618"/>
			<point x="254" y="676" type="curve" smooth="yes"/>
			<point x="254" y="734"/>
			<point x="205" y="783"/>
			<point x="146" y="783" type="curve" smooth="yes"/>
			<point x="88" y="783"/>
			<point x="40" y="734"/>
			<point x="40" y="676" type="curve" smooth="yes"/>
			<point x="40" y="618"/>
			<point x="88" y="570"/>
		</contour>
		<contour>
			<point x="147" y="633" type="curve" smooth="yes"/>
			<point x="123" y="633"/>
			<point x="103" y="652"/>
			<point x="103" y="676" type="curve" smooth="yes"/>
			<point x="103" y="700"/>
			<point x="123" y="720"/>
			<point x="147" y="720" type="curve" smooth="yes"/>
			<point x="171" y="720"/>
			<point x="191" y="700"/>
			<point x="191" y="676" type="curve" smooth="yes"/>
			<point x="191" y="652"/>
			<point x="171" y="633"/>
		</contour>
	</outline>
</glyph>
<glyph name="emdash" format="2">
	<advance width="968"/>
	<unicode hex="2014"/>
	<outline>
		<contour>
			<point x="924" y="258" type="move"/>
			<point x="44" y="258" type="line"/>
		</contour>
	</outline>
</glyph>
<glyph name="daggerdbl" format="2">
	<advance width="396"/>
	<unicode hex="2021"/>
	<outline>
		<contour>
			<point x="83" y="551" type="curve" smooth="yes"/>
			<point x="167" y="556" type="line"/>
			<point x="229" y="556" type="line"/>
			<point x="313" y="551" type="line" smooth="yes"/>
			<point x="334" y="550"/>
			<point x="351" y="567"/>
			<point x="351" y="587" type="curve" smooth="yes"/>
			<point x="351" y="607"/>
			<point x="334" y="624"/>
			<point x="313" y="623" type="curve" smooth="yes"/>
			<point x="231" y="618" type="line"/>
			<point x="236" y="695" type="line" smooth="yes"/>
			<point x="237" y="717"/>
			<point x="218" y="735"/>
			<point x="198" y="735" type="curve" smooth="yes"/>
			<point x="178" y="735"/>
			<point x="159" y="717"/>
			<point x="160" y="695" type="curve" smooth="yes"/>
			<point x="165" y="618" type="line"/>
			<point x="83" y="623" type="line" smooth="yes"/>
			<point x="62" y="624"/>
			<point x="45" y="607"/>
			<point x="45" y="587" type="curve" smooth="yes"/>
			<point x="45" y="567"/>
			<point x="62" y="550"/>
		</contour>
		<contour>
			<point x="165" y="401" type="line"/>
			<point x="231" y="401" type="line"/>
			<point x="229" y="556" type="line"/>
			<point x="167" y="556" type="line"/>
		</contour>
		<contour>
			<point x="167" y="432" type="line"/>
			<point x="160" y="324" type="line" smooth="yes"/>
			<point x="159" y="302"/>
			<point x="178" y="284"/>
			<point x="198" y="284" type="curve" smooth="yes"/>
			<point x="218" y="284"/>
			<point x="237" y="302"/>
			<point x="236" y="324" type="curve" smooth="yes"/>
			<point x="229" y="432" type="line"/>
		</contour>
		<contour>
			<point x="167" y="463" type="line"/>
			<point x="83" y="468" type="line" smooth="yes"/>
			<point x="62" y="469"/>
			<point x="45" y="452"/>
			<point x="45" y="432" type="curve" smooth="yes"/>
			<point x="45" y="412"/>
			<point x="62" y="395"/>
			<point x="83" y="396" type="curve" smooth="yes"/>
			<point x="167" y="401" type="line"/>
		</contour>
		<contour>
			<point x="313" y="468" type="curve" smooth="yes"/>
			<point x="229" y="463" type="line"/>
			<point x="229" y="401" type="line"/>
			<point x="313" y="396" type="line" smooth="yes"/>
			<point x="334" y="395"/>
			<point x="351" y="412"/>
			<point x="351" y="432" type="curve" smooth="yes"/>
			<point x="351" y="452"/>
			<point x="334" y="469"/>
		</contour>
	</outline>
</glyph>
<glyph name="franc" format="2">
	<advance width="620"/>
	<unicode hex="20A3"/>
	<outline>
		<contour>
			<point x="205" y="624" type="line"/>
			<point x="522" y="624" type="line" smooth="yes"/>
			<point x="543" y="624"/>
			<point x="560" y="641"/>
			<point x="560" y="662" type="curve" smooth="yes"/>
			<point x="560" y="683"/>
			<point x="543" y="700"/>
			<point x="522" y="700" type="curve" smooth="yes"/>
			<point x="205" y="700" type="line"/>
		</contour>
		<contour>
			<point x="205" y="331" type="line"/>
			<point x="501" y="331" type="line" smooth="yes"/>
			<point x="522" y="331"/>
			<point x="539" y="348"/>
			<point x="539" y="369" type="curve" smooth="yes"/>
			<point x="539" y="390"/>
			<point x="522" y="407"/>
			<point x="501" y="407" type="curve" smooth="yes"/>
			<point x="205" y="407" type="line"/>
		</contour>
		<contour>
			<point x="204" y="-5" type="curve" smooth="yes"/>
			<point x="227" y="-5"/>
			<point x="245" y="13"/>
			<point x="245" y="36" type="curve" smooth="yes"/>
			<point x="245" y="700" type="line"/>
			<point x="204" y="700" type="line" smooth="yes" name="💚"/>
			<point x="181" y="700"/>
			<point x="163" y="682"/>
			<point x="163" y="659" type="curve" smooth="yes"/>
			<point x="163" y="36" type="line" smooth="yes"/>
			<point x="163" y="13"/>
			<point x="181" y="-5"/>
		</contour>
		<contour>
			<point x="63" y="181" type="move"/>
			<point x="395" y="181" type="line"/>
		</contour>
	</outline>
</glyph>
<glyph name="lira" format="2">
	<advance width="600"/>
	<unicode hex="20A4"/>
	<outline>
		<contour>
			<point x="233" y="397" type="curve" smooth="yes"/>
			<point x="233" y="429" type="line" smooth="yes"/>
			<point x="233" y="541"/>
			<point x="241" y="631"/>
			<point x="358" y="631" type="curve" smooth="yes"/>
			<point x="421" y="631"/>
			<point x="453" y="614"/>
			<point x="474" y="563" type="curve" smooth="yes"/>
			<point x="481" y="546"/>
			<point x="494" y="529"/>
			<point x="514" y="529" type="curve" smooth="yes"/>
			<point x="536" y="529"/>
			<point x="558" y="547"/>
			<point x="555" y="568" type="curve" smooth="yes"/>
			<point x="544" y="647"/>
			<point x="461" y="705"/>
			<point x="358" y="705" type="curve" smooth="yes"/>
			<point x="190" y="705"/>
			<point x="150" y="596"/>
			<point x="150" y="402" type="curve" smooth="yes"/>
			<point x="150" y="215"/>
			<point x="119" y="121"/>
			<point x="68" y="70" type="curve" smooth="yes"/>
			<point x="60" y="62"/>
			<point x="55" y="52"/>
			<point x="55" y="40" type="curve" smooth="yes"/>
			<point x="55" y="18"/>
			<point x="73" y="0"/>
			<point x="95" y="0" type="curve" smooth="yes"/>
			<point x="516" y="0" type="line" smooth="yes"/>
			<point x="538" y="0"/>
			<point x="556" y="18"/>
			<point x="556" y="40" type="curve" smooth="yes"/>
			<point x="556" y="62"/>
			<point x="538" y="80"/>
			<point x="516" y="80" type="curve" smooth="yes"/>
			<point x="170" y="80" type="line"/>
			<point x="212" y="158"/>
			<point x="233" y="259"/>
		</contour>
		<contour>
			<point x="44" y="274" type="move"/>
			<point x="518" y="274" type="line"/>
		</contour>
		<contour>
			<point x="44" y="421" type="move"/>
			<point x="518" y="421" type="line"/>
		</contour>
	</outline>
</glyph>
<glyph name="peso" format="2">
	<advance width="620"/>
	<unicode hex="20B1"/>
	<outline>
		<contour>
			<point x="150" y="-10" type="curve" smooth="yes"/>
			<point x="173" y="-10"/>
			<point x="191" y="8"/>
			<point x="191" y="31" type="curve" smooth="yes"/>
			<point x="191" y="700" type="line"/>
			<point x="150" y="700" type="line" smooth="yes"/>
			<point x="127" y="700"/>
			<point x="109" y="682"/>
			<point x="109" y="659" type="curve" smooth="yes"/>
			<point x="109" y="31" type="line" smooth="yes"/>
			<point x="109" y="8"/>
			<point x="127" y="-10"/>
		</contour>
		<contour>
			<point x="151" y="206" type="line"/>
			<point x="281" y="206" type="line" smooth="yes"/>
			<point x="418" y="206"/>
			<point x="524" y="318"/>
			<point x="524" y="453" type="curve" smooth="yes"/>
			<point x="524" y="588"/>
			<point x="418" y="700"/>
			<point x="281" y="700" type="curve" smooth="yes"/>
			<point x="157" y="700" type="line"/>
			<point x="157" y="620" type="line"/>
			<point x="281" y="620" type="line" smooth="yes"/>
			<point x="373" y="620"/>
			<point x="444" y="545"/>
			<point x="444" y="453" type="curve" smooth="yes"/>
			<point x="444" y="361"/>
			<point x="373" y="286"/>
			<point x="281" y="286" type="curve" smooth="yes"/>
			<point x="151" y="286" type="line"/>
		</contour>
		<contour>
			<point x="39" y="380" type="move"/>
			<point x="581" y="380" type="line"/>
		</contour>
		<contour>
			<point x="39" y="522" type="move"/>
			<point x="581" y="522" type="line"/>
		</contour>
	</outline>
</glyph>
<glyph name="liraTurkish" format="2">
	<advance width="620"/>
	<unicode hex="20BA"/>
	<outline>
		<contour>
			<point x="191" y="0" type="curve" smooth="yes"/>
			<point x="231" y="0" type="line"/>
			<point x="232" y="660" type="line" smooth="yes"/>
			<point x="232" y="682"/>
			<point x="214" y="700"/>
			<point x="192" y="700" type="curve" smooth="yes"/>
			<point x="170" y="700"/>
			<point x="152" y="682"/>
			<point x="152" y="660" type="curve" smooth="yes"/>
			<point x="151" y="40" type="line" smooth="yes"/>
			<point x="151" y="18"/>
			<point x="169" y="0"/>
		</contour>
		<contour>
			<point x="500" y="324" type="curve" smooth="yes"/>
			<point x="500" y="115"/>
			<point x="401" y="80"/>
			<point x="214" y="80" type="curve"/>
			<point x="214" y="0" type="line"/>
			<point x="413" y="0"/>
			<point x="580" y="56"/>
			<point x="580" y="324" type="curve" smooth="yes"/>
			<point x="580" y="346"/>
			<point x="562" y="364"/>
			<point x="540" y="364" type="curve" smooth="yes"/>
			<point x="518" y="364"/>
			<point x="500" y="346"/>
		</contour>
		<contour>
			<point x="55" y="242" type="move"/>
			<point x="457" y="422" type="line"/>
		</contour>
		<contour>
			<point x="47" y="398" type="move"/>
			<point x="453" y="581" type="line"/>
		</contour>
	</outline>
</glyph>
<glyph name="ruble" format="2">
	<advance width="620"/>
	<unicode hex="20BD"/>
	<outline>
		<contour>
			<point x="201" y="-10" type="curve" smooth="yes"/>
			<point x="224" y="-10"/>
			<point x="242" y="8"/>
			<point x="242" y="31" type="curve" smooth="yes"/>
			<point x="242" y="700" type="line"/>
			<point x="201" y="700" type="line" smooth="yes" name="💚"/>
			<point x="178" y="700"/>
			<point x="160" y="682"/>
			<point x="160" y="659" type="curve" smooth="yes"/>
			<point x="160" y="31" type="line" smooth="yes"/>
			<point x="160" y="8"/>
			<point x="178" y="-10"/>
		</contour>
		<contour>
			<point x="197" y="299" type="line"/>
			<point x="391" y="299" type="line" smooth="yes"/>
			<point x="501" y="299"/>
			<point x="580" y="385"/>
			<point x="580" y="504" type="curve" smooth="yes"/>
			<point x="580" y="618"/>
			<point x="493" y="700"/>
			<point x="374" y="700" type="curve" smooth="yes"/>
			<point x="197" y="700" type="line"/>
			<point x="197" y="622" type="line"/>
			<point x="374" y="622" type="line" smooth="yes"/>
			<point x="446" y="622"/>
			<point x="499" y="572"/>
			<point x="499" y="504" type="curve" smooth="yes"/>
			<point x="499" y="430"/>
			<point x="457" y="374"/>
			<point x="374" y="374" type="curve" smooth="yes"/>
			<point x="197" y="374" type="line"/>
		</contour>
		<contour>
			<point x="44" y="197" type="move"/>
			<point x="509" y="197" type="line"/>
		</contour>
		<contour>
			<point x="44" y="334" type="move"/>
			<point x="208" y="334" type="line"/>
		</contour>
	</outline>
</glyph>
<glyph name="trademark" format="2">
	<advance width="690"/>
	<unicode hex="2122"/>
	<guideline x="185" y="476" angle="0"/>
	<anchor x="324" y="0" name="bottom"/>
	<anchor x="323" y="350" name="center"/>
	<anchor x="323" y="700" name="top"/>
	<outline>
		<contour>
			<point x="195" y="455" type="curve" smooth="yes"/>
			<point x="210" y="455"/>
			<point x="222" y="467"/>
			<point x="222" y="483" type="curve" smooth="yes"/>
			<point x="222" y="648" type="line"/>
			<point x="298" y="648" type="line" smooth="yes"/>
			<point x="312" y="648"/>
			<point x="325" y="659"/>
			<point x="325" y="674" type="curve" smooth="yes"/>
			<point x="325" y="688"/>
			<point x="312" y="700"/>
			<point x="298" y="700" type="curve" smooth="yes" name="❌"/>
			<point x="87" y="700" type="line" smooth="yes" name="❌"/>
			<point x="72" y="700"/>
			<point x="60" y="688"/>
			<point x="60" y="674" type="curve" smooth="yes"/>
			<point x="60" y="659"/>
			<point x="72" y="648"/>
			<point x="87" y="648" type="curve" smooth="yes"/>
			<point x="166" y="648" type="line"/>
			<point x="166" y="483" type="line" smooth="yes"/>
			<point x="166" y="467"/>
			<point x="178" y="455"/>
		</contour>
		<contour>
			<point x="487" y="452" type="curve" smooth="yes"/>
			<point x="500" y="452"/>
			<point x="509" y="463"/>
			<point x="521" y="484" type="curve" smooth="yes"/>
			<point x="599" y="625" type="line"/>
			<point x="579" y="639" type="line"/>
			<point x="574" y="482" type="line" smooth="yes"/>
			<point x="573" y="466"/>
			<point x="586" y="454"/>
			<point x="602" y="454" type="curve" smooth="yes"/>
			<point x="618" y="454"/>
			<point x="630" y="466"/>
			<point x="630" y="482" type="curve" smooth="yes"/>
			<point x="630" y="678" type="line" smooth="yes"/>
			<point x="630" y="693"/>
			<point x="618" y="706"/>
			<point x="597" y="706" type="curve" smooth="yes"/>
			<point x="585" y="706"/>
			<point x="575" y="697"/>
			<point x="570" y="688" type="curve" smooth="yes"/>
			<point x="477" y="505" type="line"/>
			<point x="497" y="505" type="line"/>
			<point x="403" y="688" type="line" smooth="yes"/>
			<point x="397" y="700"/>
			<point x="387" y="706"/>
			<point x="376" y="706" type="curve" smooth="yes"/>
			<point x="355" y="706"/>
			<point x="343" y="693"/>
			<point x="343" y="678" type="curve" smooth="yes"/>
			<point x="343" y="482" type="line" smooth="yes"/>
			<point x="343" y="466"/>
			<point x="355" y="454"/>
			<point x="371" y="454" type="curve" smooth="yes"/>
			<point x="387" y="454"/>
			<point x="400" y="466"/>
			<point x="399" y="482" type="curve" smooth="yes"/>
			<point x="393" y="639" type="line"/>
			<point x="373" y="625" type="line"/>
			<point x="454" y="484" type="line" smooth="yes"/>
			<point x="465" y="465"/>
			<point x="474" y="452"/>
		</contour>
	</outline>
</glyph>
<glyph name="rightArrow" format="2">
	<advance width="720"/>
	<unicode hex="2192"/>
	<outline>
		<contour>
			<point x="428" y="61" type="curve" smooth="yes"/>
			<point x="684" y="316" type="line" smooth="yes"/>
			<point x="706" y="338"/>
			<point x="706" y="370"/>
			<point x="684" y="392" type="curve" smooth="yes"/>
			<point x="428" y="650" type="line" smooth="yes"/>
			<point x="421" y="657"/>
			<point x="410" y="662"/>
			<point x="399" y="662" type="curve" smooth="yes"/>
			<point x="377" y="662"/>
			<point x="359" y="644"/>
			<point x="359" y="622" type="curve" smooth="yes"/>
			<point x="359" y="611"/>
			<point x="362" y="602"/>
			<point x="370" y="594" type="curve" smooth="yes"/>
			<point x="597" y="367" type="line"/>
			<point x="608" y="393" type="line"/>
			<point x="59" y="393" type="line" smooth="yes"/>
			<point x="38" y="393"/>
			<point x="20" y="376"/>
			<point x="20" y="354" type="curve" smooth="yes"/>
			<point x="20" y="332"/>
			<point x="38" y="315"/>
			<point x="59" y="315" type="curve" smooth="yes"/>
			<point x="608" y="315" type="line"/>
			<point x="597" y="341" type="line"/>
			<point x="370" y="117" type="line" smooth="yes"/>
			<point x="362" y="109"/>
			<point x="359" y="100"/>
			<point x="359" y="89" type="curve" smooth="yes"/>
			<point x="359" y="67"/>
			<point x="377" y="49"/>
			<point x="399" y="49" type="curve" smooth="yes"/>
			<point x="410" y="49"/>
			<point x="421" y="54"/>
		</contour>
	</outline>
</glyph>
<glyph name="O.ss02" format="2">
	<advance width="694"/>
	<anchor x="347" y="0" name="bottom"/>
	<anchor x="347" y="350" name="center"/>
	<anchor x="625" y="10" name="ogonek"/>
	<anchor x="347" y="700" name="top"/>
	<anchor x="20" y="700" name="topleft"/>
	<anchor x="674" y="700" name="topright"/>
	<outline>
		<contour>
			<point x="532" y="350" type="curve" smooth="yes"/>
			<point x="532" y="179"/>
			<point x="463" y="61"/>
			<point x="341" y="61" type="curve" smooth="yes"/>
			<point x="220" y="61"/>
			<point x="146" y="179"/>
			<point x="146" y="350" type="curve" smooth="yes"/>
			<point x="146" y="521"/>
			<point x="220" y="640"/>
			<point x="341" y="640" type="curve" smooth="yes"/>
			<point x="463" y="640"/>
			<point x="532" y="521"/>
		</contour>
		<contour>
			<point x="618" y="350" type="curve" smooth="yes"/>
			<point x="618" y="571"/>
			<point x="513" y="715"/>
			<point x="341" y="715" type="curve" smooth="yes"/>
			<point x="170" y="715"/>
			<point x="60" y="571"/>
			<point x="60" y="350" type="curve" smooth="yes"/>
			<point x="60" y="130"/>
			<point x="168" y="-14"/>
			<point x="339" y="-14" type="curve" smooth="yes"/>
			<point x="511" y="-14"/>
			<point x="618" y="130"/>
		</contour>
	</outline>
</glyph>
<glyph name="S.ss02" format="2">
	<advance width="584"/>
	<anchor x="292" y="0" name="bottom"/>
	<anchor x="292" y="700" name="top"/>
	<outline>
		<contour>
			<point x="45" y="203" type="curve" smooth="yes"/>
			<point x="45" y="77"/>
			<point x="151" y="-15"/>
			<point x="297" y="-15" type="curve" smooth="yes"/>
			<point x="437" y="-15"/>
			<point x="539" y="77"/>
			<point x="539" y="207" type="curve" smooth="yes"/>
			<point x="539" y="335"/>
			<point x="440" y="366"/>
			<point x="303" y="400" type="curve" smooth="yes"/>
			<point x="183" y="430"/>
			<point x="140" y="463"/>
			<point x="140" y="519" type="curve" smooth="yes"/>
			<point x="140" y="588"/>
			<point x="197" y="638"/>
			<point x="286" y="638" type="curve" smooth="yes"/>
			<point x="374" y="638"/>
			<point x="436" y="594"/>
			<point x="447" y="519" type="curve" smooth="yes"/>
			<point x="450" y="498"/>
			<point x="468" y="483"/>
			<point x="490" y="483" type="curve" smooth="yes"/>
			<point x="516" y="483"/>
			<point x="531" y="503"/>
			<point x="526" y="531" type="curve" smooth="yes"/>
			<point x="507" y="638"/>
			<point x="412" y="715"/>
			<point x="286" y="715" type="curve" smooth="yes"/>
			<point x="159" y="715"/>
			<point x="57" y="636"/>
			<point x="57" y="510" type="curve" smooth="yes"/>
			<point x="57" y="417"/>
			<point x="116" y="364"/>
			<point x="282" y="323" type="curve" smooth="yes"/>
			<point x="383" y="298"/>
			<point x="456" y="287"/>
			<point x="456" y="196" type="curve" smooth="yes"/>
			<point x="456" y="118"/>
			<point x="389" y="62"/>
			<point x="297" y="62" type="curve" smooth="yes"/>
			<point x="197" y="62"/>
			<point x="125" y="121"/>
			<point x="125" y="203" type="curve" smooth="yes"/>
			<point x="125" y="228"/>
			<point x="108" y="246"/>
			<point x="84" y="246" type="curve" smooth="yes"/>
			<point x="61" y="246"/>
			<point x="45" y="228"/>
		</contour>
	</outline>
</glyph>
<glyph name="acutecomb.loclVIT.narrow" format="2">
	<advance width="0"/>
	<anchor x="92" y="515" name="_top"/>
	<anchor x="112" y="768" name="top"/>
	<outline>
		<contour>
			<point x="76" y="588" type="curve" smooth="yes"/>
			<point x="92" y="588"/>
			<point x="105" y="596"/>
			<point x="115" y="610" type="curve" smooth="yes"/>
			<point x="174" y="689" type="line" smooth="yes"/>
			<point x="181" y="698"/>
			<point x="184" y="708"/>
			<point x="184" y="718" type="curve" smooth="yes"/>
			<point x="184" y="742"/>
			<point x="165" y="759"/>
			<point x="138" y="758" type="curve" smooth="yes"/>
			<point x="119" y="757"/>
			<point x="109" y="747"/>
			<point x="98" y="729" type="curve" smooth="yes"/>
			<point x="49" y="647" type="line" smooth="yes"/>
			<point x="43" y="638"/>
			<point x="40" y="628"/>
			<point x="40" y="622" type="curve" smooth="yes"/>
			<point x="40" y="606"/>
			<point x="52" y="588"/>
		</contour>
	</outline>
</glyph>
<glyph name="acutecomb.narrow" format="2">
	<advance width="0"/>
	<anchor x="76" y="515" name="_top"/>
	<anchor x="96" y="768" name="top"/>
	<outline>
		<contour>
			<point x="40" y="620" type="curve" smooth="yes"/>
			<point x="40" y="598"/>
			<point x="55" y="585"/>
			<point x="76" y="585" type="curve" smooth="yes"/>
			<point x="90" y="585"/>
			<point x="104" y="591"/>
			<point x="116" y="617" type="curve" smooth="yes"/>
			<point x="161" y="714" type="line" smooth="yes"/>
			<point x="166" y="724"/>
			<point x="169" y="735"/>
			<point x="169" y="747" type="curve" smooth="yes"/>
			<point x="169" y="770"/>
			<point x="148" y="785"/>
			<point x="126" y="785" type="curve" smooth="yes"/>
			<point x="111" y="785"/>
			<point x="95" y="778"/>
			<point x="85" y="750" type="curve" smooth="yes"/>
			<point x="45" y="644" type="line" smooth="yes"/>
			<point x="42" y="636"/>
			<point x="40" y="628"/>
		</contour>
	</outline>
</glyph>
<glyph name="circumflexcomb_tildecomb" format="2">
	<advance width="0"/>
	<anchor x="200" y="515" name="_top"/>
	<anchor x="200" y="768" name="top"/>
	<outline>
		<contour>
			<point x="333" y="651" type="curve" smooth="yes"/>
			<point x="242" y="727" type="line" smooth="yes"/>
			<point x="212" y="752"/>
			<point x="188" y="752"/>
			<point x="158" y="727" type="curve" smooth="yes"/>
			<point x="72" y="654" type="line" smooth="yes"/>
			<point x="62" y="645"/>
			<point x="57" y="634"/>
			<point x="57" y="623" type="curve" smooth="yes"/>
			<point x="57" y="603"/>
			<point x="71" y="588"/>
			<point x="90" y="588" type="curve" smooth="yes"/>
			<point x="103" y="588"/>
			<point x="113" y="596"/>
			<point x="120" y="601" type="curve" smooth="yes"/>
			<point x="216" y="674" type="line"/>
			<point x="186" y="674" type="line"/>
			<point x="282" y="601" type="line" smooth="yes"/>
			<point x="289" y="596"/>
			<point x="299" y="588"/>
			<point x="312" y="588" type="curve" smooth="yes"/>
			<point x="331" y="588"/>
			<point x="347" y="603"/>
			<point x="347" y="623" type="curve" smooth="yes"/>
			<point x="347" y="634"/>
			<point x="343" y="643"/>
		</contour>
		<component base="tildecomb.loclVIT" yOffset="158"/>
	</outline>
</glyph>
<glyph name="eight.lf" format="2">
	<advance width="575"/>
	<outline>
		<contour>
			<point x="211" y="344" type="curve"/>
			<point x="190" y="417" type="line"/>
			<point x="123" y="383"/>
			<point x="40" y="318"/>
			<point x="40" y="216" type="curve" smooth="yes"/>
			<point x="40" y="66"/>
			<point x="158" y="-15"/>
			<point x="300" y="-15" type="curve" smooth="yes"/>
			<point x="414" y="-15"/>
			<point x="535" y="68"/>
			<point x="535" y="198" type="curve" smooth="yes"/>
			<point x="535" y="352"/>
			<point x="396" y="396"/>
			<point x="293" y="410" type="curve" smooth="yes"/>
			<point x="204" y="422"/>
			<point x="142" y="432"/>
			<point x="142" y="524" type="curve" smooth="yes"/>
			<point x="142" y="599"/>
			<point x="207" y="635"/>
			<point x="288" y="635" type="curve" smooth="yes"/>
			<point x="363" y="635"/>
			<point x="441" y="604"/>
			<point x="441" y="530" type="curve" smooth="yes"/>
			<point x="441" y="472"/>
			<point x="405" y="425"/>
			<point x="354" y="394" type="curve"/>
			<point x="387" y="329" type="line"/>
			<point x="450" y="368"/>
			<point x="521" y="436"/>
			<point x="521" y="530" type="curve" smooth="yes"/>
			<point x="521" y="667"/>
			<point x="392" y="715"/>
			<point x="288" y="715" type="curve" smooth="yes"/>
			<point x="183" y="715"/>
			<point x="62" y="652"/>
			<point x="62" y="524" type="curve" smooth="yes"/>
			<point x="62" y="363"/>
			<point x="193" y="343"/>
			<point x="283" y="331" type="curve" smooth="yes"/>
			<point x="370" y="319"/>
			<point x="455" y="288"/>
			<point x="455" y="198" type="curve" smooth="yes"/>
			<point x="455" y="114"/>
			<point x="382" y="65"/>
			<point x="300" y="65" type="curve" smooth="yes"/>
			<point x="197" y="65"/>
			<point x="120" y="119"/>
			<point x="120" y="216" type="curve" smooth="yes"/>
			<point x="120" y="280"/>
			<point x="166" y="317"/>
		</contour>
	</outline>
</glyph>
<glyph name="four.dnom" format="2">
	<advance width="343"/>
	<outline>
		<contour>
			<point x="290" y="163" type="curve" smooth="yes"/>
			<point x="50" y="163" type="line"/>
			<point x="76" y="129" type="line"/>
			<point x="254" y="336" type="line"/>
			<point x="205" y="368" type="line"/>
			<point x="205" y="33" type="line" smooth="yes"/>
			<point x="205" y="14"/>
			<point x="218" y="0"/>
			<point x="236" y="0" type="curve" smooth="yes"/>
			<point x="255" y="0"/>
			<point x="269" y="15"/>
			<point x="269" y="33" type="curve" smooth="yes"/>
			<point x="269" y="345" type="line" smooth="yes"/>
			<point x="269" y="364"/>
			<point x="253" y="380"/>
			<point x="233" y="380" type="curve" smooth="yes"/>
			<point x="230" y="380" type="line" smooth="yes"/>
			<point x="214" y="380"/>
			<point x="200" y="371"/>
			<point x="190" y="360" type="curve" smooth="yes"/>
			<point x="34" y="179" type="line" smooth="yes"/>
			<point x="26" y="169"/>
			<point x="20" y="156"/>
			<point x="20" y="140" type="curve" smooth="yes"/>
			<point x="20" y="138" type="line" smooth="yes"/>
			<point x="20" y="119"/>
			<point x="36" y="103"/>
			<point x="56" y="103" type="curve" smooth="yes"/>
			<point x="290" y="103" type="line" smooth="yes"/>
			<point x="308" y="103"/>
			<point x="323" y="115"/>
			<point x="323" y="134" type="curve" smooth="yes"/>
			<point x="323" y="152"/>
			<point x="308" y="163"/>
		</contour>
	</outline>
</glyph>
<glyph name="four.lf" format="2">
	<advance width="610"/>
	<outline>
		<contour>
			<point x="546" y="291" type="curve" smooth="yes"/>
			<point x="114" y="291" type="line"/>
			<point x="123" y="280" type="line"/>
			<point x="436" y="636" type="line"/>
			<point x="397" y="659" type="line"/>
			<point x="397" y="35" type="line" smooth="yes"/>
			<point x="397" y="13"/>
			<point x="415" y="-5"/>
			<point x="437" y="-5" type="curve" smooth="yes"/>
			<point x="460" y="-5"/>
			<point x="478" y="13"/>
			<point x="478" y="35" type="curve" smooth="yes"/>
			<point x="478" y="659" type="line" smooth="yes"/>
			<point x="478" y="684"/>
			<point x="458" y="704"/>
			<point x="433" y="704" type="curve" smooth="yes"/>
			<point x="427" y="704" type="line" smooth="yes"/>
			<point x="402" y="704"/>
			<point x="381" y="691"/>
			<point x="366" y="674" type="curve" smooth="yes"/>
			<point x="55" y="320" type="line" smooth="yes"/>
			<point x="42" y="305"/>
			<point x="33" y="286"/>
			<point x="33" y="259" type="curve" smooth="yes"/>
			<point x="33" y="256" type="line" smooth="yes"/>
			<point x="33" y="231"/>
			<point x="53" y="211"/>
			<point x="78" y="211" type="curve" smooth="yes"/>
			<point x="546" y="211" type="line" smooth="yes"/>
			<point x="568" y="211"/>
			<point x="586" y="229"/>
			<point x="586" y="251" type="curve" smooth="yes"/>
			<point x="586" y="273"/>
			<point x="568" y="291"/>
		</contour>
	</outline>
</glyph>
<glyph name="p.ss03" format="2">
	<advance width="570"/>
	<anchor x="55" y="-205" name="bottom"/>
	<anchor x="285" y="257" name="center"/>
	<anchor x="285" y="515" name="top"/>
	<outline>
		<contour>
			<point x="313" y="530" type="curve" smooth="yes"/>
			<point x="241" y="530"/>
			<point x="174" y="495"/>
			<point x="152" y="443" type="curve"/>
			<point x="150" y="443" type="line"/>
			<point x="150" y="484" type="line" smooth="yes"/>
			<point x="150" y="507"/>
			<point x="132" y="525"/>
			<point x="110" y="525" type="curve" smooth="yes"/>
			<point x="88" y="525"/>
			<point x="70" y="507"/>
			<point x="70" y="484" type="curve" smooth="yes"/>
			<point x="70" y="-140" type="line" smooth="yes"/>
			<point x="70" y="-162"/>
			<point x="88" y="-180"/>
			<point x="110" y="-180" type="curve" smooth="yes"/>
			<point x="132" y="-180"/>
			<point x="150" y="-162"/>
			<point x="150" y="-140" type="curve" smooth="yes"/>
			<point x="150" y="54" type="line"/>
			<point x="152" y="54" type="line"/>
			<point x="174" y="26"/>
			<point x="224" y="-15"/>
			<point x="302" y="-15" type="curve" smooth="yes"/>
			<point x="437" y="-15"/>
			<point x="530" y="109"/>
			<point x="530" y="257" type="curve" smooth="yes"/>
			<point x="530" y="401"/>
			<point x="451" y="530"/>
		</contour>
		<contour>
			<point x="294" y="453" type="curve" smooth="yes"/>
			<point x="392" y="454"/>
			<point x="450" y="382"/>
			<point x="450" y="257" type="curve" smooth="yes"/>
			<point x="450" y="137"/>
			<point x="393" y="62"/>
			<point x="297" y="62" type="curve" smooth="yes"/>
			<point x="205" y="62"/>
			<point x="150" y="142"/>
			<point x="150" y="257" type="curve" smooth="yes"/>
			<point x="150" y="377"/>
			<point x="202" y="452"/>
		</contour>
	</outline>
</glyph>
<glyph name="six.lf" format="2">
	<advance width="572"/>
	<outline>
		<contour>
			<point x="30" y="352" type="curve" smooth="yes"/>
			<point x="30" y="87"/>
			<point x="149" y="-15"/>
			<point x="296" y="-15" type="curve" smooth="yes"/>
			<point x="442" y="-15"/>
			<point x="542" y="100"/>
			<point x="542" y="219" type="curve" smooth="yes"/>
			<point x="542" y="361"/>
			<point x="435" y="444"/>
			<point x="313" y="444" type="curve" smooth="yes"/>
			<point x="210" y="444"/>
			<point x="117" y="377"/>
			<point x="92" y="326" type="curve"/>
			<point x="107" y="307" type="line"/>
			<point x="107" y="542"/>
			<point x="202" y="635"/>
			<point x="307" y="635" type="curve" smooth="yes"/>
			<point x="381" y="635"/>
			<point x="426" y="604"/>
			<point x="449" y="546" type="curve" smooth="yes"/>
			<point x="455" y="531"/>
			<point x="470" y="520"/>
			<point x="487" y="520" type="curve" smooth="yes"/>
			<point x="509" y="520"/>
			<point x="527" y="538"/>
			<point x="527" y="560" type="curve" smooth="yes"/>
			<point x="527" y="565"/>
			<point x="527" y="569"/>
			<point x="525" y="574" type="curve" smooth="yes" name="💚"/>
			<point x="490" y="661"/>
			<point x="407" y="715"/>
			<point x="307" y="715" type="curve" smooth="yes"/>
			<point x="181" y="715"/>
			<point x="30" y="612"/>
		</contour>
		<contour>
			<point x="136" y="221" type="curve" smooth="yes"/>
			<point x="136" y="316"/>
			<point x="225" y="364"/>
			<point x="313" y="364" type="curve" smooth="yes"/>
			<point x="396" y="364"/>
			<point x="462" y="311"/>
			<point x="462" y="221" type="curve" smooth="yes"/>
			<point x="462" y="135"/>
			<point x="400" y="65"/>
			<point x="296" y="65" type="curve" smooth="yes"/>
			<point x="202" y="65"/>
			<point x="136" y="133"/>
		</contour>
	</outline>
</glyph>
<glyph name="zero.lf" format="2">
	<advance width="588"/>
	<outline>
		<contour>
			<point x="291" y="715" type="curve" smooth="yes"/>
			<point x="107" y="715"/>
			<point x="31" y="505"/>
			<point x="31" y="351" type="curve" smooth="yes"/>
			<point x="31" y="195"/>
			<point x="97" y="-15"/>
			<point x="291" y="-15" type="curve" smooth="yes"/>
			<point x="483" y="-15"/>
			<point x="557" y="193"/>
			<point x="557" y="353" type="curve" smooth="yes"/>
			<point x="557" y="513"/>
			<point x="494" y="715"/>
		</contour>
		<contour>
			<point x="291" y="635" type="curve" smooth="yes"/>
			<point x="435" y="635"/>
			<point x="477" y="494"/>
			<point x="477" y="353" type="curve" smooth="yes"/>
			<point x="477" y="213"/>
			<point x="426" y="65"/>
			<point x="291" y="65" type="curve" smooth="yes"/>
			<point x="156" y="65"/>
			<point x="111" y="214"/>
			<point x="111" y="351" type="curve" smooth="yes"/>
			<point x="111" y="484"/>
			<point x="164" y="635"/>
		</contour>
	</outline>
</glyph>
